# xmcd
# 
# Track frame offsets:
#     150
#     18097
#     35711
#     48138
#     60626
#     75044
#     91892
#     104113
#     116721
#     130127
#     142278
#     156651
# 
# Disc length: 2312
# 
# Revision: 3
# Processed by: cddbd v1.5.2PL0 Copyright (c) Steve Scherf et al.
# Submitted via: fre:ac v1.0.31
# 
DISCID=a009060c
DTITLE=Jill Morris - ... not one of those days
DYEAR=2003
DGENRE=Country
TTITLE0=This is not one of those days
TTITLE1=In a heartbeat
TTITLE2=Shattered
TTITLE3=Dancin' for no reason at all
TTITLE4=Why did we only touch
TTITLE5=For everyone with a broken heart
TTITLE6=What a memory you'll make
TTITLE7=Pocket change
TTITLE8=They asked about you
TTITLE9=Blues at bay
TTITLE10=Me and this heartache of mine
TTITLE11=When I dream
EXTD=
EXTT0=
EXTT1=
EXTT2=
EXTT3=
EXTT4=
EXTT5=
EXTT6=
EXTT7=
EXTT8=
EXTT9=
EXTT10=
EXTT11=
PLAYORDER=
